# xmcd CD database file
#
# Track frame offsets:
#	150
#	9459
#	40563
#	63498
#	81008
#	110294
#	132901
#	164520
#	194466
#
# Disc length: 2997 seconds
#
# Revision: 0
# Processed by: cddbd v1.5.2PL0 Copyright (c) Steve Scherf et al.
# Submitted via: CDex 1.70beta2
#
DISCID=6d0bb309
DTITLE=배장은 트리오 - The End And Everything After
DYEAR=2006
DGENRE=Jazz
TTITLE0=Liberation Amalgamation
TTITLE1=Secret Place
TTITLE2=My Mother’s House
TTITLE3=Donauquelle: The End And Everyting After
TTITLE4=The Theme of Paganini
TTITLE5=After He Has Gone
TTITLE6=I am a Poor Wayfaring Stranger and 엄마야 누나야
TTITLE7=Procrastination
TTITLE8=You Don’t Know What Love Is
EXTD=YEAR: 2006
EXTT0=
EXTT1=
EXTT2=
EXTT3=
EXTT4=
EXTT5=
EXTT6=
EXTT7=
EXTT8=
PLAYORDER=
